<?xml version="1.0" encoding="UTF-8" standalone="no"?>
<!-- Created with Inkscape (http://www.inkscape.org/) -->

<svg
   xmlns:dc="http://purl.org/dc/elements/1.1/"
   xmlns:cc="http://creativecommons.org/ns#"
   xmlns:rdf="http://www.w3.org/1999/02/22-rdf-syntax-ns#"
   xmlns:svg="http://www.w3.org/2000/svg"
   xmlns="http://www.w3.org/2000/svg"
   xmlns:sodipodi="http://sodipodi.sourceforge.net/DTD/sodipodi-0.dtd"
   xmlns:inkscape="http://www.inkscape.org/namespaces/inkscape"
   width="343pt"
   height="340pt"
   viewBox="0 0 343 340"
   id="svg4152"
   version="1.1"
   inkscape:version="0.91 r13725"
   sodipodi:docname="logo8.svg">
  <defs
     id="defs4154" />
  <sodipodi:namedview
     pagecolor="#ffffff"
     bordercolor="#666666"
     borderopacity="1.0"
     inkscape:pageopacity="0.0"
     inkscape:pageshadow="2"
     inkscape:zoom="2.3849577"
     inkscape:cx="186.35955"
     inkscape:cy="255.7053"
     inkscape:document-units="pt"
     inkscape:current-layer="layer1"
     id="namedview4156"
     showgrid="false"
     inkscape:window-width="1865"
     inkscape:window-height="1056"
     inkscape:window-x="1975"
     inkscape:window-y="24"
     inkscape:window-maximized="1" />
  <metadata
     id="metadata4158">
    <rdf:RDF>
      <cc:Work
         rdf:about="">
        <dc:format>image/svg+xml</dc:format>
        <dc:type
           rdf:resource="http://purl.org/dc/dcmitype/StillImage" />
        <dc:title></dc:title>
      </cc:Work>
    </rdf:RDF>
  </metadata>
  <g
     inkscape:label="Layer 1"
     inkscape:groupmode="layer"
     id="layer1">
    <path
       style="fill:#19f6e8;fill-opacity:1;stroke:#19f6e8;stroke-width:1.60000002;stroke-miterlimit:4;stroke-dasharray:none;stroke-opacity:1"
       id="path5010"
       d="m 57.21633,232.40691 c 0.60082,-0.9846 1.016205,-1.71357 1.769532,-2.66389 4.278922,-5.39785 10.149532,-9.19312 15.715499,-13.10617 17.051215,-11.65274 34.659129,-22.48313 52.815739,-32.32978 2.25517,-0.93425 6.44826,-3.68836 8.71322,-0.87185 1.788,2.22341 0.74787,6.44608 0.39535,8.89507 -0.67277,3.66951 -1.52277,7.30227 -2.26977,10.95665 -0.18993,0.92919 -0.76023,3.7194 -0.88806,4.82596 -0.0482,0.41702 -0.0265,0.83918 -0.0397,1.25877 0.0773,-0.0649 0.21364,-0.0953 0.23188,-0.19456 1.37336,-7.47028 -8.41702,3.65777 -13.74971,5.98175 -1.50887,0.65756 2.51009,-2.12992 3.74927,-3.2132 20.41512,-17.84672 -13.17006,11.32568 11.17382,-9.79044 2.4106,-2.04059 4.80288,-4.10303 7.23183,-6.12176 5.16116,-4.28949 12.40062,-10.20161 17.7721,-14.05638 3.85733,-2.76815 7.79547,-5.42601 11.79354,-7.98669 14.01483,-8.97621 22.9785,-13.65023 38.36549,-22.3115 6.1738,-3.16008 12.30842,-6.39787 18.52137,-9.48024 9.57599,-4.75086 29.25841,-14.01142 39.03757,-18.61023 13.74407,-6.46339 27.5121,-12.87576 41.25848,-19.33427 4.05202,-0.0486 7.37427,-4.620142 11.54029,-4.84567 0.74734,-0.04048 1.92141,0.456256 1.89507,1.20424 -0.10934,3.10549 -6.47374,9.30857 -7.45903,10.44338 -2.66489,3.06932 -5.31962,6.14744 -7.97943,9.22116 -12.72265,14.8353 -24.89773,30.13461 -36.79549,45.63641 -5.06875,6.60416 -10.02944,13.29056 -15.06043,19.92352 -15.48306,20.41315 -15.40252,20.24273 -30.87687,40.37677 -10.20178,13.57983 -14.73602,19.38104 -24.15828,32.72736 -2.63855,3.73741 -5.29099,7.46923 -7.75462,11.32419 -1.84148,2.88145 -6.25768,8.85217 -5.46737,13.32559 0.21222,1.2012 1.51398,1.91298 2.27098,2.86948 0,0 -14.92872,8.50814 -14.92872,8.50814 l 0,0 c -0.52006,-1.5721 -1.80965,-3.07932 -1.56018,-4.7163 0.75193,-4.934 8.51336,-13.42556 10.74741,-16.14604 3.45557,-4.20796 7.01982,-8.3256 10.50361,-12.51024 15.14447,-18.19121 12.20353,-14.72254 27.86217,-34.31528 5.14745,-6.6496 10.37419,-13.23856 15.44235,-19.94879 13.10084,-17.34544 16.08192,-21.91441 28.36813,-39.42817 9.97709,-14.22212 19.95056,-28.44676 29.89897,-42.68897 1.8237,-2.71017 3.68183,-5.39748 5.47109,-8.13051 1.08293,-1.65416 1.98705,-3.4263 3.14436,-5.02931 0.42706,-0.59153 1.00405,-1.06685 1.58006,-1.51462 0.21899,-0.17023 1.04821,-0.3038 0.77099,-0.31299 -2.53596,-0.0841 -5.51277,1.35267 -7.61894,2.07034 -2.82873,1.1183 -5.66755,2.21141 -8.48618,3.3549 -29.16361,11.83148 -57.77819,25.09156 -85.37525,40.23699 -3.3892,1.95886 -6.82838,3.8337 -10.16761,5.8766 -7.808,4.77683 -16.1519,10.20488 -23.52893,15.70883 -7.89621,5.89132 -15.25191,12.47953 -22.54921,19.08207 -4.49239,4.25843 -5.11994,4.73754 -9.10118,8.89701 -7.40009,7.73137 -1.86611,4.18171 -20.74934,14.07474 -0.66265,0.34717 -1.56463,-0.13616 -2.1687,-0.57744 -0.33714,-0.24628 -0.19321,-0.81235 -0.28981,-1.21852 1.78985,-5.73448 3.84002,-11.44996 4.41288,-17.47144 0.12113,-1.96259 0.34187,-3.40005 0.0388,-5.30938 -0.0647,-0.40756 -0.14182,-0.84573 -0.39111,-1.17459 -1.1092,-1.46332 -4.83091,0.58834 -5.6586,0.87601 -6.56181,3.3142 -5.50806,2.90261 2.73783,-2.00555 -2.50069,1.24838 -4.83413,2.80791 -7.21824,4.26667 -7.24125,4.43068 -14.323918,9.12936 -21.212494,14.09023 -3.614208,2.67805 -5.640568,4.00637 -8.823128,6.92941 -1.676573,1.53987 -3.458615,3.40928 -4.562454,5.4462 -0.129382,0.23876 -0.193922,0.50731 -0.290884,0.76096 0,0 -18.050004,8.26537 -18.050004,8.26537 z"
       inkscape:connector-curvature="0" />
  </g>
</svg>
